<svg xmlns="http://www.w3.org/2000/svg" viewBox="0 0 48 48" width="48" height="48">
  <defs>
    <linearGradient id="logoGradient" x1="0%" y1="0%" x2="100%" y2="100%">
      <stop offset="0%" style="stop-color:#10b981;stop-opacity:1" />
      <stop offset="50%" style="stop-color:#06b6d4;stop-opacity:1" />
      <stop offset="100%" style="stop-color:#8b5cf6;stop-opacity:1" />
    </linearGradient>
  </defs>
  
  <!-- Main robot head circle -->
  <circle cx="24" cy="20" r="12" fill="url(#logoGradient)" stroke="#ffffff" stroke-width="1.5"/>
  
  <!-- Eyes (representing data/analysis) -->
  <circle cx="20" cy="17" r="2" fill="#ffffff"/>
  <circle cx="28" cy="17" r="2" fill="#ffffff"/>
  <circle cx="20" cy="17" r="1" fill="#1f2937"/>
  <circle cx="28" cy="17" r="1" fill="#1f2937"/>
  
  <!-- Mouth (subtle smile representing success) -->
  <path d="M 19 23 Q 24 26 29 23" stroke="#ffffff" stroke-width="1.5" fill="none" stroke-linecap="round"/>
  
  <!-- Algorithmic pattern lines (representing trading algorithms) -->
  <g stroke="#ffffff" stroke-width="1" opacity="0.8">
    <line x1="8" y1="38" x2="16" y2="42" stroke-linecap="round"/>
    <line x1="16" y1="42" x2="20" y2="38"/>
    <line x1="20" y1="38" x2="28" y2="42"/>
    <line x1="28" y1="42" x2="32" y2="38"/>
    <line x1="32" y1="38" x2="40" y2="42" stroke-linecap="round"/>
  </g>
  
  <!-- Data points (small dots representing market data) -->
  <circle cx="12" cy="35" r="1" fill="#10b981"/>
  <circle cx="18" cy="39" r="1" fill="#06b6d4"/>
  <circle cx="24" cy="36" r="1" fill="#8b5cf6"/>
  <circle cx="30" cy="40" r="1" fill="#10b981"/>
  <circle cx="36" cy="36" r="1" fill="#06b6d4"/>
  
  <!-- Antenna (representing connectivity) -->
  <line x1="24" y1="8" x2="24" y2="12" stroke="url(#logoGradient)" stroke-width="2" stroke-linecap="round"/>
  <circle cx="24" cy="7" r="1.5" fill="#10b981"/>
</svg>