<svg width="40" height="40" viewBox="0 0 40 40" fill="none" xmlns="http://www.w3.org/2000/svg">
  <!-- Main Bot Head Circle -->
  <circle cx="20" cy="20" r="16" stroke="url(#gradient1)" stroke-width="2" fill="url(#gradient2)"/>
  
  <!-- Bot Eyes -->
  <circle cx="15" cy="16" r="3" fill="url(#gradient3)"/>
  <circle cx="25" cy="16" r="3" fill="url(#gradient3)"/>
  <circle cx="15" cy="16" r="1.5" fill="#ffffff"/>
  <circle cx="25" cy="16" r="1.5" fill="#ffffff"/>
  
  <!-- Bot Mouth/Algorithm Symbol -->
  <rect x="12" y="24" width="16" height="2" rx="1" fill="url(#gradient4)"/>
  <rect x="14" y="27" width="12" height="1.5" rx="0.75" fill="url(#gradient4)"/>
  <rect x="16" y="29.5" width="8" height="1" rx="0.5" fill="url(#gradient4)"/>
  
  <!-- Circuit Lines on Head -->
  <path d="M8 12L12 12M12 8L12 12M12 12L16 12" stroke="url(#gradient5)" stroke-width="1.5" fill="none"/>
  <path d="M32 12L28 12M28 8L28 12M28 12L24 12" stroke="url(#gradient5)" stroke-width="1.5" fill="none"/>
  
  <!-- Trading Graph Lines -->
  <path d="M6 20L10 16L14 18L18 14L22 17L26 13L30 16L34 20" stroke="url(#gradient6)" stroke-width="2" fill="none" opacity="0.8"/>
  
  <!-- Bot Antennas -->
  <circle cx="12" cy="6" r="2" fill="url(#gradient7)"/>
  <rect x="11.5" y="6" width="1" height="6" fill="url(#gradient8)"/>
  <circle cx="28" cy="6" r="2" fill="url(#gradient7)"/>
  <rect x="27.5" y="6" width="1" height="6" fill="url(#gradient8)"/>
  
  <!-- Algorithm Symbol "A" in center -->
  <path d="M20 11L22.5 17H21L20.3 15H19.7L19 17H17.5L20 11Z" fill="url(#gradient9)"/>
  <rect x="19.5" y="14" width="1" height="0.8" fill="url(#gradient10)"/>
  
  <!-- Tech Corner Elements -->
  <rect x="4" y="4" width="3" height="1" fill="url(#gradient11)"/>
  <rect x="4" y="4" width="1" height="3" fill="url(#gradient11)"/>
  <rect x="33" y="4" width="3" height="1" fill="url(#gradient11)"/>
  <rect x="35" y="4" width="1" height="3" fill="url(#gradient11)"/>
  <rect x="4" y="35" width="3" height="1" fill="url(#gradient11)"/>
  <rect x="4" y="33" width="1" height="3" fill="url(#gradient11)"/>
  <rect x="33" y="35" width="3" height="1" fill="url(#gradient11)"/>
  <rect x="35" y="33" width="1" height="3" fill="url(#gradient11)"/>
  
  <defs>
    <!-- Gradient Definitions -->
    <linearGradient id="gradient1" x1="0%" y1="0%" x2="100%" y2="100%">
      <stop offset="0%" style="stop-color:#00d4ff;stop-opacity:1" />
      <stop offset="50%" style="stop-color:#0099cc;stop-opacity:1" />
      <stop offset="100%" style="stop-color:#0066ff;stop-opacity:1" />
    </linearGradient>
    
    <radialGradient id="gradient2" cx="50%" cy="40%" r="60%">
      <stop offset="0%" style="stop-color:#1a1a2e;stop-opacity:1" />
      <stop offset="100%" style="stop-color:#0f0f23;stop-opacity:1" />
    </radialGradient>
    
    <radialGradient id="gradient3" cx="50%" cy="50%" r="50%">
      <stop offset="0%" style="stop-color:#00ff88;stop-opacity:1" />
      <stop offset="100%" style="stop-color:#00cc66;stop-opacity:1" />
    </radialGradient>
    
    <linearGradient id="gradient4" x1="0%" y1="0%" x2="100%" y2="0%">
      <stop offset="0%" style="stop-color:#ff6b35;stop-opacity:1" />
      <stop offset="100%" style="stop-color:#f7931e;stop-opacity:1" />
    </linearGradient>
    
    <linearGradient id="gradient5" x1="0%" y1="0%" x2="100%" y2="100%">
      <stop offset="0%" style="stop-color:#ff0080;stop-opacity:1" />
      <stop offset="100%" style="stop-color:#ff4040;stop-opacity:1" />
    </linearGradient>
    
    <linearGradient id="gradient6" x1="0%" y1="0%" x2="100%" y2="0%">
      <stop offset="0%" style="stop-color:#ff4757;stop-opacity:1" />
      <stop offset="25%" style="stop-color:#ff7675;stop-opacity:1" />
      <stop offset="50%" style="stop-color:#fdcb6e;stop-opacity:1" />
      <stop offset="75%" style="stop-color:#6c5ce7;stop-opacity:1" />
      <stop offset="100%" style="stop-color:#00b894;stop-opacity:1" />
    </linearGradient>
    
    <radialGradient id="gradient7" cx="50%" cy="50%" r="50%">
      <stop offset="0%" style="stop-color:#ffeaa7;stop-opacity:1" />
      <stop offset="100%" style="stop-color:#fdcb6e;stop-opacity:1" />
    </radialGradient>
    
    <linearGradient id="gradient8" x1="0%" y1="0%" x2="0%" y2="100%">
      <stop offset="0%" style="stop-color:#a29bfe;stop-opacity:1" />
      <stop offset="100%" style="stop-color:#6c5ce7;stop-opacity:1" />
    </linearGradient>
    
    <linearGradient id="gradient9" x1="0%" y1="0%" x2="100%" y2="100%">
      <stop offset="0%" style="stop-color:#ffffff;stop-opacity:1" />
      <stop offset="100%" style="stop-color:#dfe6e9;stop-opacity:1" />
    </linearGradient>
    
    <linearGradient id="gradient10" x1="0%" y1="0%" x2="100%" y2="0%">
      <stop offset="0%" style="stop-color:#00cec9;stop-opacity:1" />
      <stop offset="100%" style="stop-color:#55a3ff;stop-opacity:1" />
    </linearGradient>
    
    <linearGradient id="gradient11" x1="0%" y1="0%" x2="100%" y2="100%">
      <stop offset="0%" style="stop-color:#74b9ff;stop-opacity:1" />
      <stop offset="100%" style="stop-color:#0984e3;stop-opacity:1" />
    </linearGradient>
  </defs>
</svg>