<svg width="40" height="40" viewBox="0 0 40 40" fill="none" xmlns="http://www.w3.org/2000/svg">
  <!-- Outer Ring with Tech Lines -->
  <circle cx="20" cy="20" r="18" stroke="url(#gradient1)" stroke-width="1.5" fill="none" opacity="0.6"/>
  
  <!-- Inner Hexagon Tech Shape -->
  <path d="M20 4L30.66 10L30.66 22L20 28L9.34 22L9.34 10L20 4Z" stroke="url(#gradient2)" stroke-width="1.2" fill="url(#gradient3)" opacity="0.9"/>
  
  <!-- Central Algorithm Symbol - Stylized "A" -->
  <path d="M20 12L25 25H22.5L21.5 22H18.5L17.5 25H15L20 12Z" fill="url(#gradient4)"/>
  <rect x="18.8" y="19" width="2.4" height="1.5" fill="url(#gradient5)"/>
  
  <!-- Tech Circuit Lines -->
  <path d="M8 20H12M28 20H32M20 8V12M20 28V32" stroke="url(#gradient6)" stroke-width="1" opacity="0.7"/>
  
  <!-- Corner Tech Elements -->
  <circle cx="12" cy="12" r="1" fill="url(#gradient7)" opacity="0.8"/>
  <circle cx="28" cy="12" r="1" fill="url(#gradient7)" opacity="0.8"/>
  <circle cx="12" cy="28" r="1" fill="url(#gradient7)" opacity="0.8"/>
  <circle cx="28" cy="28" r="1" fill="url(#gradient7)" opacity="0.8"/>
  
  <!-- Trading Chart Lines -->
  <path d="M10 24L14 20L18 22L22 18L26 21L30 16" stroke="url(#gradient8)" stroke-width="1.5" fill="none" opacity="0.6"/>
  
  <defs>
    <!-- Gradient Definitions -->
    <linearGradient id="gradient1" x1="0%" y1="0%" x2="100%" y2="100%">
      <stop offset="0%" style="stop-color:#60A5FA;stop-opacity:1" />
      <stop offset="50%" style="stop-color:#3B82F6;stop-opacity:1" />
      <stop offset="100%" style="stop-color:#1D4ED8;stop-opacity:1" />
    </linearGradient>
    
    <linearGradient id="gradient2" x1="0%" y1="0%" x2="100%" y2="100%">
      <stop offset="0%" style="stop-color:#10B981;stop-opacity:1" />
      <stop offset="100%" style="stop-color:#059669;stop-opacity:1" />
    </linearGradient>
    
    <linearGradient id="gradient3" x1="0%" y1="0%" x2="100%" y2="100%">
      <stop offset="0%" style="stop-color:#10B981;stop-opacity:0.1" />
      <stop offset="100%" style="stop-color:#059669;stop-opacity:0.2" />
    </linearGradient>
    
    <linearGradient id="gradient4" x1="0%" y1="0%" x2="100%" y2="100%">
      <stop offset="0%" style="stop-color:#FFFFFF;stop-opacity:1" />
      <stop offset="100%" style="stop-color:#E5E7EB;stop-opacity:1" />
    </linearGradient>
    
    <linearGradient id="gradient5" x1="0%" y1="0%" x2="100%" y2="100%">
      <stop offset="0%" style="stop-color:#60A5FA;stop-opacity:1" />
      <stop offset="100%" style="stop-color:#3B82F6;stop-opacity:1" />
    </linearGradient>
    
    <linearGradient id="gradient6" x1="0%" y1="0%" x2="100%" y2="100%">
      <stop offset="0%" style="stop-color:#8B5CF6;stop-opacity:1" />
      <stop offset="100%" style="stop-color:#7C3AED;stop-opacity:1" />
    </linearGradient>
    
    <linearGradient id="gradient7" x1="0%" y1="0%" x2="100%" y2="100%">
      <stop offset="0%" style="stop-color:#F59E0B;stop-opacity:1" />
      <stop offset="100%" style="stop-color:#D97706;stop-opacity:1" />
    </linearGradient>
    
    <linearGradient id="gradient8" x1="0%" y1="0%" x2="100%" y2="100%">
      <stop offset="0%" style="stop-color:#EF4444;stop-opacity:1" />
      <stop offset="50%" style="stop-color:#F59E0B;stop-opacity:1" />
      <stop offset="100%" style="stop-color:#10B981;stop-opacity:1" />
    </linearGradient>
  </defs>
</svg>